<?xml version="1.0" encoding="UTF-8" standalone="no"?> <!-- Created with Vectornator for iOS (http://vectornator.io/) --><!DOCTYPE svg PUBLIC "-//W3C//DTD SVG 1.1//EN" "http://www.w3.org/Graphics/SVG/1.1/DTD/svg11.dtd">
<svg style="fill-rule:evenodd;clip-rule:evenodd;stroke-linecap:round;stroke-linejoin:round;" xmlns:vectornator="http://vectornator.io" xmlns:xlink="http://www.w3.org/1999/xlink" xmlns="http://www.w3.org/2000/svg" xml:space="preserve" version="1.1" viewBox="0 0 78 50">
<metadata>
<vectornator:setting key="DisplayWhiteBackground" value="0"/>
<vectornator:setting key="RulersVisible" value="1"/>
<vectornator:setting key="SnapToEdges" value="0"/>
<vectornator:setting key="Units" value="Pixels"/>
<vectornator:setting key="New" value="1"/>
<vectornator:setting key="DynamicGuides" value="0"/>
<vectornator:setting key="SnapToPoints" value="0"/>
<vectornator:setting key="SnapToGrid" value="0"/>
<vectornator:setting key="SnapToGuides" value="1"/>
<vectornator:setting key="GridSpacing" value="36"/>
</metadata>
<defs/>
<g id="Layer 1" vectornator:layerName="Layer 1">
<path d="M109.662-135.878L110.12-135.878L110.12-135.878L109.662-135.878Z" opacity="1" fill="#8d6c9f"/>
<path d="M73.6693+147.018L84.062+147.018C85.1171+147.018+85.9724+147.873+85.9724+148.928L85.9724+148.928C85.9724+149.983+85.1171+150.838+84.062+150.838L73.6693+150.838C72.6142+150.838+71.7589+149.983+71.7589+148.928L71.7589+148.928C71.7589+147.873+72.6142+147.018+73.6693+147.018Z" opacity="1" fill="#8d6c9f"/>
<path d="M40.4836+46.975L40.4836+46.975C40.5511+46.975+40.6059+47.0298+40.6059+47.0974L40.6059+49.6265C40.6059+49.6941+40.5511+49.7489+40.4836+49.7489L40.4836+49.7489C40.416+49.7489+40.3612+49.6941+40.3612+49.6265L40.3612+47.0974C40.3612+47.0298+40.416+46.975+40.4836+46.975Z" opacity="1" fill="#8d6c9f"/>
<path d="M105.425-4.50465L136.1-4.50465C136.573-4.50465+136.957-4.12112+136.957-3.64801L136.957-3.64801C136.957-3.17491+136.573-2.79138+136.1-2.79138L105.425-2.79138C104.952-2.79138+104.568-3.17491+104.568-3.64801L104.568-3.64801C104.568-4.12112+104.952-4.50465+105.425-4.50465Z" opacity="1" fill="#8d6c9f"/>
<path d="M56.678+30.0871L56.678+30.0871C57.1737+30.0871+57.5755+30.4889+57.5755+30.9845L57.5755+32.5346C57.5755+33.0302+57.1737+33.432+56.678+33.432L56.678+33.432C56.1824+33.432+55.7806+33.0302+55.7806+32.5346L55.7806+30.9845C55.7806+30.4889+56.1824+30.0871+56.678+30.0871Z" opacity="1" fill="#8d6c9f"/>
<path d="M24.7576+0L53.2424+0C66.9156+0+78+11.1929+78+25L78+25C78+38.8071+66.9156+50+53.2424+50L24.7576+50C11.0844+50+0+38.8071+0+25L0+25C0+11.1929+11.0844+0+24.7576+0Z" opacity="1" fill="#8d6c9f"/>
<path d="M44.4812+18.7716L48.1225+18.7716C48.2813+18.7716+48.41+18.9003+48.41+19.0591L48.41+19.0591C48.41+19.2179+48.2813+19.3466+48.1225+19.3466L44.4812+19.3466C44.3224+19.3466+44.1937+19.2179+44.1937+19.0591L44.1937+19.0591C44.1937+18.9003+44.3224+18.7716+44.4812+18.7716Z" opacity="1" fill="#8d6c9f"/>
</g>
<g id="Layer 2" vectornator:layerName="Layer 2">
<g opacity="1">
<path d="M20.2843+8.67133L57.7157+8.67133C59.064+8.67133+60.1569+9.96952+60.1569+11.5709L60.1569+11.5709C60.1569+13.1723+59.064+14.4705+57.7157+14.4705L20.2843+14.4705C18.936+14.4705+17.8431+13.1723+17.8431+11.5709L17.8431+11.5709C17.8431+9.96952+18.936+8.67133+20.2843+8.67133Z" opacity="1" fill="#dfcfea"/>
<path d="M20.2843+22.1004L57.7157+22.1004C59.064+22.1004+60.1569+23.3986+60.1569+25L60.1569+25C60.1569+26.6014+59.064+27.8996+57.7157+27.8996L20.2843+27.8996C18.936+27.8996+17.8431+26.6014+17.8431+25L17.8431+25C17.8431+23.3986+18.936+22.1004+20.2843+22.1004Z" opacity="1" fill="#dfcfea"/>
<path d="M20.2843+35.5295L57.7157+35.5295C59.064+35.5295+60.1569+36.8277+60.1569+38.4291L60.1569+38.4291C60.1569+40.0305+59.064+41.3287+57.7157+41.3287L20.2843+41.3287C18.936+41.3287+17.8431+40.0305+17.8431+38.4291L17.8431+38.4291C17.8431+36.8277+18.936+35.5295+20.2843+35.5295Z" opacity="1" fill="#dfcfea"/>
</g>
</g>
</svg>
